<mxfile host="app.diagrams.net" agent="Mozilla/5.0 (Windows NT 10.0; Win64; x64) AppleWebKit/537.36 (KHTML, like Gecko) Chrome/126.0.0.0 Safari/537.36" version="24.7.5">
  <diagram name="PÃ¡gina-1" id="45FSJXpmV_dydSXz9r8W">
    <mxGraphModel dx="1434" dy="790" grid="1" gridSize="10" guides="1" tooltips="1" connect="1" arrows="1" fold="1" page="1" pageScale="1" pageWidth="827" pageHeight="1169" math="0" shadow="0">
      <root>
        <mxCell id="0" />
        <mxCell id="1" parent="0" />
        <mxCell id="D9RJUFR4-NRL0ieGEcIc-1" value="AWS - Cloud" style="points=[[0,0],[0.25,0],[0.5,0],[0.75,0],[1,0],[1,0.25],[1,0.5],[1,0.75],[1,1],[0.75,1],[0.5,1],[0.25,1],[0,1],[0,0.75],[0,0.5],[0,0.25]];outlineConnect=0;gradientColor=none;html=1;whiteSpace=wrap;fontSize=12;fontStyle=0;container=0;pointerEvents=0;collapsible=0;recursiveResize=0;shape=mxgraph.aws4.group;grIcon=mxgraph.aws4.group_account;strokeColor=#CD2264;fillColor=none;verticalAlign=top;align=left;spacingLeft=30;fontColor=#CD2264;dashed=0;rounded=0;" vertex="1" parent="1">
          <mxGeometry x="648" y="1" width="1139" height="882" as="geometry" />
        </mxCell>
        <mxCell id="D9RJUFR4-NRL0ieGEcIc-2" value="&lt;font style=&quot;font-size: 14px;&quot;&gt;User&lt;/font&gt;" style="sketch=0;outlineConnect=0;fontColor=#232F3E;gradientColor=none;fillColor=#232F3D;strokeColor=none;dashed=0;verticalLabelPosition=bottom;verticalAlign=top;align=center;html=1;fontSize=14;fontStyle=0;aspect=fixed;pointerEvents=1;shape=mxgraph.aws4.users;rounded=0;" vertex="1" parent="1">
          <mxGeometry x="474.5" y="349" width="100" height="100" as="geometry" />
        </mxCell>
        <mxCell id="D9RJUFR4-NRL0ieGEcIc-3" style="edgeStyle=none;curved=1;rounded=0;orthogonalLoop=1;jettySize=auto;html=1;fontSize=12;startSize=8;endSize=8;dashed=1;strokeWidth=3;flowAnimation=1;" edge="1" parent="1" source="D9RJUFR4-NRL0ieGEcIc-4" target="D9RJUFR4-NRL0ieGEcIc-32">
          <mxGeometry relative="1" as="geometry" />
        </mxCell>
        <mxCell id="D9RJUFR4-NRL0ieGEcIc-4" value="&lt;font style=&quot;font-size: 15px;&quot;&gt;Amazon S3&lt;/font&gt;" style="sketch=0;points=[[0,0,0],[0.25,0,0],[0.5,0,0],[0.75,0,0],[1,0,0],[0,1,0],[0.25,1,0],[0.5,1,0],[0.75,1,0],[1,1,0],[0,0.25,0],[0,0.5,0],[0,0.75,0],[1,0.25,0],[1,0.5,0],[1,0.75,0]];outlineConnect=0;fontColor=#232F3E;gradientColor=#60A337;gradientDirection=north;fillColor=#277116;strokeColor=#ffffff;dashed=0;verticalLabelPosition=bottom;verticalAlign=top;align=center;html=1;fontSize=12;fontStyle=0;aspect=fixed;shape=mxgraph.aws4.resourceIcon;resIcon=mxgraph.aws4.s3;rounded=0;" vertex="1" parent="1">
          <mxGeometry x="1076.5" y="601" width="99" height="99" as="geometry" />
        </mxCell>
        <mxCell id="D9RJUFR4-NRL0ieGEcIc-5" value="" style="sketch=0;points=[[0,0,0],[0.25,0,0],[0.5,0,0],[0.75,0,0],[1,0,0],[0,1,0],[0.25,1,0],[0.5,1,0],[0.75,1,0],[1,1,0],[0,0.25,0],[0,0.5,0],[0,0.75,0],[1,0.25,0],[1,0.5,0],[1,0.75,0]];outlineConnect=0;fontColor=#232F3E;fillColor=#DD344C;strokeColor=#ffffff;dashed=0;verticalLabelPosition=bottom;verticalAlign=top;align=center;html=1;fontSize=12;fontStyle=0;aspect=fixed;shape=mxgraph.aws4.resourceIcon;resIcon=mxgraph.aws4.shield;rounded=0;" vertex="1" parent="1">
          <mxGeometry x="654" y="34" width="55" height="55" as="geometry" />
        </mxCell>
        <mxCell id="D9RJUFR4-NRL0ieGEcIc-6" value="Internet" style="outlineConnect=0;dashed=0;verticalLabelPosition=bottom;verticalAlign=top;align=center;html=1;shape=mxgraph.aws3.internet_2;fillColor=#D2D3D3;gradientColor=none;fontSize=14;" vertex="1" parent="1">
          <mxGeometry x="465" y="246" width="119" height="61" as="geometry" />
        </mxCell>
        <mxCell id="D9RJUFR4-NRL0ieGEcIc-7" value="" style="endArrow=classic;html=1;rounded=0;entryX=0;entryY=0.5;entryDx=0;entryDy=0;entryPerimeter=0;strokeWidth=3;dashed=1;flowAnimation=1;" edge="1" parent="1">
          <mxGeometry width="50" height="50" relative="1" as="geometry">
            <mxPoint x="595.5" y="355" as="sourcePoint" />
            <mxPoint x="717.01" y="355" as="targetPoint" />
          </mxGeometry>
        </mxCell>
        <mxCell id="D9RJUFR4-NRL0ieGEcIc-8" value="" style="edgeStyle=none;curved=1;rounded=0;orthogonalLoop=1;jettySize=auto;html=1;fontSize=12;startSize=8;endSize=8;flowAnimation=1;strokeWidth=3;entryX=0;entryY=0.5;entryDx=0;entryDy=0;entryPerimeter=0;" edge="1" parent="1" source="D9RJUFR4-NRL0ieGEcIc-10" target="D9RJUFR4-NRL0ieGEcIc-14">
          <mxGeometry relative="1" as="geometry" />
        </mxCell>
        <mxCell id="D9RJUFR4-NRL0ieGEcIc-9" style="edgeStyle=none;curved=1;rounded=0;orthogonalLoop=1;jettySize=auto;html=1;fontSize=12;startSize=8;endSize=8;" edge="1" parent="1" source="D9RJUFR4-NRL0ieGEcIc-10" target="D9RJUFR4-NRL0ieGEcIc-16">
          <mxGeometry relative="1" as="geometry" />
        </mxCell>
        <mxCell id="D9RJUFR4-NRL0ieGEcIc-10" value="AWS API GATEWAY" style="outlineConnect=0;dashed=0;verticalLabelPosition=bottom;verticalAlign=top;align=center;html=1;shape=mxgraph.aws3.api_gateway;fillColor=#D9A741;gradientColor=none;" vertex="1" parent="1">
          <mxGeometry x="730.5" y="302.5" width="76.5" height="93" as="geometry" />
        </mxCell>
        <mxCell id="D9RJUFR4-NRL0ieGEcIc-11" value="Amazon DynamoDB" style="sketch=0;outlineConnect=0;fontColor=#232F3E;gradientColor=none;strokeColor=#ffffff;fillColor=#232F3E;dashed=0;verticalLabelPosition=middle;verticalAlign=bottom;align=center;html=1;whiteSpace=wrap;fontSize=10;fontStyle=1;spacing=3;shape=mxgraph.aws4.productIcon;prIcon=mxgraph.aws4.dynamodb;" vertex="1" parent="1">
          <mxGeometry x="1374" y="294" width="80" height="110" as="geometry" />
        </mxCell>
        <mxCell id="D9RJUFR4-NRL0ieGEcIc-12" value="" style="edgeStyle=none;curved=1;rounded=0;orthogonalLoop=1;jettySize=auto;html=1;fontSize=12;startSize=8;endSize=8;dashed=1;strokeWidth=3;flowAnimation=1;" edge="1" parent="1" source="D9RJUFR4-NRL0ieGEcIc-13" target="D9RJUFR4-NRL0ieGEcIc-11">
          <mxGeometry relative="1" as="geometry" />
        </mxCell>
        <mxCell id="D9RJUFR4-NRL0ieGEcIc-13" value="" style="outlineConnect=0;dashed=0;verticalLabelPosition=bottom;verticalAlign=top;align=center;html=1;shape=mxgraph.aws3.lambda_function;fillColor=#F58534;gradientColor=none;" vertex="1" parent="1">
          <mxGeometry x="1188" y="313" width="69" height="72" as="geometry" />
        </mxCell>
        <mxCell id="D9RJUFR4-NRL0ieGEcIc-14" value="" style="sketch=0;points=[[0,0,0],[0.25,0,0],[0.5,0,0],[0.75,0,0],[1,0,0],[0,1,0],[0.25,1,0],[0.5,1,0],[0.75,1,0],[1,1,0],[0,0.25,0],[0,0.5,0],[0,0.75,0],[1,0.25,0],[1,0.5,0],[1,0.75,0]];outlineConnect=0;fontColor=#232F3E;fillColor=#DD344C;strokeColor=#ffffff;dashed=0;verticalLabelPosition=bottom;verticalAlign=top;align=center;html=1;fontSize=12;fontStyle=0;aspect=fixed;shape=mxgraph.aws4.resourceIcon;resIcon=mxgraph.aws4.cognito;" vertex="1" parent="1">
          <mxGeometry x="988" y="310" width="78" height="78" as="geometry" />
        </mxCell>
        <mxCell id="D9RJUFR4-NRL0ieGEcIc-15" style="edgeStyle=none;curved=1;rounded=0;orthogonalLoop=1;jettySize=auto;html=1;fontSize=12;startSize=8;endSize=8;dashed=1;flowAnimation=1;" edge="1" parent="1" source="D9RJUFR4-NRL0ieGEcIc-16" target="D9RJUFR4-NRL0ieGEcIc-10">
          <mxGeometry relative="1" as="geometry" />
        </mxCell>
        <mxCell id="D9RJUFR4-NRL0ieGEcIc-16" value="aws waf" style="sketch=0;points=[[0,0,0],[0.25,0,0],[0.5,0,0],[0.75,0,0],[1,0,0],[0,1,0],[0.25,1,0],[0.5,1,0],[0.75,1,0],[1,1,0],[0,0.25,0],[0,0.5,0],[0,0.75,0],[1,0.25,0],[1,0.5,0],[1,0.75,0]];outlineConnect=0;fontColor=#232F3E;fillColor=#DD344C;strokeColor=#ffffff;dashed=0;verticalLabelPosition=bottom;verticalAlign=top;align=center;html=1;fontSize=12;fontStyle=0;aspect=fixed;shape=mxgraph.aws4.resourceIcon;resIcon=mxgraph.aws4.waf;" vertex="1" parent="1">
          <mxGeometry x="729" y="464" width="78" height="78" as="geometry" />
        </mxCell>
        <mxCell id="D9RJUFR4-NRL0ieGEcIc-17" style="edgeStyle=none;curved=1;rounded=0;orthogonalLoop=1;jettySize=auto;html=1;entryX=0;entryY=0.5;entryDx=0;entryDy=0;entryPerimeter=0;fontSize=12;startSize=8;endSize=8;dashed=1;strokeWidth=3;flowAnimation=1;" edge="1" parent="1" source="D9RJUFR4-NRL0ieGEcIc-14" target="D9RJUFR4-NRL0ieGEcIc-13">
          <mxGeometry relative="1" as="geometry" />
        </mxCell>
        <mxCell id="D9RJUFR4-NRL0ieGEcIc-18" value="Amazon CloudWatch" style="sketch=0;points=[[0,0,0],[0.25,0,0],[0.5,0,0],[0.75,0,0],[1,0,0],[0,1,0],[0.25,1,0],[0.5,1,0],[0.75,1,0],[1,1,0],[0,0.25,0],[0,0.5,0],[0,0.75,0],[1,0.25,0],[1,0.5,0],[1,0.75,0]];points=[[0,0,0],[0.25,0,0],[0.5,0,0],[0.75,0,0],[1,0,0],[0,1,0],[0.25,1,0],[0.5,1,0],[0.75,1,0],[1,1,0],[0,0.25,0],[0,0.5,0],[0,0.75,0],[1,0.25,0],[1,0.5,0],[1,0.75,0]];outlineConnect=0;fontColor=#232F3E;fillColor=#E7157B;strokeColor=#ffffff;dashed=0;verticalLabelPosition=bottom;verticalAlign=top;align=center;html=1;fontSize=14;fontStyle=0;aspect=fixed;shape=mxgraph.aws4.resourceIcon;resIcon=mxgraph.aws4.cloudwatch_2;rounded=0;" vertex="1" parent="1">
          <mxGeometry x="838" y="771" width="79" height="79" as="geometry" />
        </mxCell>
        <mxCell id="D9RJUFR4-NRL0ieGEcIc-19" value="Amazon SNS" style="sketch=0;points=[[0,0,0],[0.25,0,0],[0.5,0,0],[0.75,0,0],[1,0,0],[0,1,0],[0.25,1,0],[0.5,1,0],[0.75,1,0],[1,1,0],[0,0.25,0],[0,0.5,0],[0,0.75,0],[1,0.25,0],[1,0.5,0],[1,0.75,0]];outlineConnect=0;fontColor=#232F3E;fillColor=#E7157B;strokeColor=#ffffff;dashed=0;verticalLabelPosition=bottom;verticalAlign=top;align=center;html=1;fontSize=14;fontStyle=0;aspect=fixed;shape=mxgraph.aws4.resourceIcon;resIcon=mxgraph.aws4.sns;rounded=0;" vertex="1" parent="1">
          <mxGeometry x="1372" y="18" width="78" height="78" as="geometry" />
        </mxCell>
        <mxCell id="D9RJUFR4-NRL0ieGEcIc-20" value="Amazon IAM" style="outlineConnect=0;dashed=0;verticalLabelPosition=bottom;verticalAlign=top;align=center;html=1;shape=mxgraph.aws3.iam;fillColor=#759C3E;gradientColor=none;rounded=0;fontSize=14;" vertex="1" parent="1">
          <mxGeometry x="1123" y="769" width="42" height="81" as="geometry" />
        </mxCell>
        <mxCell id="D9RJUFR4-NRL0ieGEcIc-21" value="Amazon Trusted Advisor" style="sketch=0;points=[[0,0,0],[0.25,0,0],[0.5,0,0],[0.75,0,0],[1,0,0],[0,1,0],[0.25,1,0],[0.5,1,0],[0.75,1,0],[1,1,0],[0,0.25,0],[0,0.5,0],[0,0.75,0],[1,0.25,0],[1,0.5,0],[1,0.75,0]];points=[[0,0,0],[0.25,0,0],[0.5,0,0],[0.75,0,0],[1,0,0],[0,1,0],[0.25,1,0],[0.5,1,0],[0.75,1,0],[1,1,0],[0,0.25,0],[0,0.5,0],[0,0.75,0],[1,0.25,0],[1,0.5,0],[1,0.75,0]];outlineConnect=0;fontColor=#232F3E;fillColor=#E7157B;strokeColor=#ffffff;dashed=0;verticalLabelPosition=bottom;verticalAlign=top;align=center;html=1;fontSize=14;fontStyle=0;aspect=fixed;shape=mxgraph.aws4.resourceIcon;resIcon=mxgraph.aws4.trusted_advisor;rounded=0;" vertex="1" parent="1">
          <mxGeometry x="1232" y="774" width="77" height="77" as="geometry" />
        </mxCell>
        <object label="Amazon CloudTrail" id="D9RJUFR4-NRL0ieGEcIc-22">
          <mxCell style="sketch=0;points=[[0,0,0],[0.25,0,0],[0.5,0,0],[0.75,0,0],[1,0,0],[0,1,0],[0.25,1,0],[0.5,1,0],[0.75,1,0],[1,1,0],[0,0.25,0],[0,0.5,0],[0,0.75,0],[1,0.25,0],[1,0.5,0],[1,0.75,0]];points=[[0,0,0],[0.25,0,0],[0.5,0,0],[0.75,0,0],[1,0,0],[0,1,0],[0.25,1,0],[0.5,1,0],[0.75,1,0],[1,1,0],[0,0.25,0],[0,0.5,0],[0,0.75,0],[1,0.25,0],[1,0.5,0],[1,0.75,0]];outlineConnect=0;fontColor=#232F3E;fillColor=#E7157B;strokeColor=#ffffff;dashed=0;verticalLabelPosition=bottom;verticalAlign=top;align=center;html=1;fontSize=14;fontStyle=0;aspect=fixed;shape=mxgraph.aws4.resourceIcon;resIcon=mxgraph.aws4.cloudtrail;" vertex="1" parent="1">
            <mxGeometry x="969" y="771" width="78" height="78" as="geometry" />
          </mxCell>
        </object>
        <mxCell id="D9RJUFR4-NRL0ieGEcIc-23" value="Security Hub" style="sketch=0;points=[[0,0,0],[0.25,0,0],[0.5,0,0],[0.75,0,0],[1,0,0],[0,1,0],[0.25,1,0],[0.5,1,0],[0.75,1,0],[1,1,0],[0,0.25,0],[0,0.5,0],[0,0.75,0],[1,0.25,0],[1,0.5,0],[1,0.75,0]];outlineConnect=0;fontColor=#232F3E;fillColor=#DD344C;strokeColor=#ffffff;dashed=0;verticalLabelPosition=bottom;verticalAlign=top;align=center;html=1;fontSize=14;fontStyle=0;aspect=fixed;shape=mxgraph.aws4.resourceIcon;resIcon=mxgraph.aws4.security_hub;" vertex="1" parent="1">
          <mxGeometry x="1671" y="774" width="77" height="77" as="geometry" />
        </mxCell>
        <mxCell id="D9RJUFR4-NRL0ieGEcIc-24" value="AWS Config" style="sketch=0;points=[[0,0,0],[0.25,0,0],[0.5,0,0],[0.75,0,0],[1,0,0],[0,1,0],[0.25,1,0],[0.5,1,0],[0.75,1,0],[1,1,0],[0,0.25,0],[0,0.5,0],[0,0.75,0],[1,0.25,0],[1,0.5,0],[1,0.75,0]];points=[[0,0,0],[0.25,0,0],[0.5,0,0],[0.75,0,0],[1,0,0],[0,1,0],[0.25,1,0],[0.5,1,0],[0.75,1,0],[1,1,0],[0,0.25,0],[0,0.5,0],[0,0.75,0],[1,0.25,0],[1,0.5,0],[1,0.75,0]];outlineConnect=0;fontColor=#232F3E;fillColor=#E7157B;strokeColor=#ffffff;dashed=0;verticalLabelPosition=bottom;verticalAlign=top;align=center;html=1;fontSize=12;fontStyle=0;aspect=fixed;shape=mxgraph.aws4.resourceIcon;resIcon=mxgraph.aws4.config;" vertex="1" parent="1">
          <mxGeometry x="1407" y="772" width="78" height="78" as="geometry" />
        </mxCell>
        <mxCell id="D9RJUFR4-NRL0ieGEcIc-25" value="AWS STEP FUNCTION" style="outlineConnect=0;dashed=1;verticalLabelPosition=bottom;verticalAlign=top;align=center;html=1;shape=mxgraph.aws3.step_functions;fillColor=#D9A741;gradientColor=none;strokeWidth=3;" vertex="1" parent="1">
          <mxGeometry x="1377.5" y="166.5" width="76.5" height="93" as="geometry" />
        </mxCell>
        <mxCell id="D9RJUFR4-NRL0ieGEcIc-26" value="AMAZON SQS" style="sketch=0;points=[[0,0,0],[0.25,0,0],[0.5,0,0],[0.75,0,0],[1,0,0],[0,1,0],[0.25,1,0],[0.5,1,0],[0.75,1,0],[1,1,0],[0,0.25,0],[0,0.5,0],[0,0.75,0],[1,0.25,0],[1,0.5,0],[1,0.75,0]];outlineConnect=0;fontColor=#232F3E;fillColor=#E7157B;strokeColor=#ffffff;dashed=0;verticalLabelPosition=bottom;verticalAlign=top;align=center;html=1;fontSize=12;fontStyle=0;aspect=fixed;shape=mxgraph.aws4.resourceIcon;resIcon=mxgraph.aws4.sqs;" vertex="1" parent="1">
          <mxGeometry x="1532" y="21.5" width="78" height="78" as="geometry" />
        </mxCell>
        <mxCell id="D9RJUFR4-NRL0ieGEcIc-27" value="AWS APPSYNC" style="sketch=0;points=[[0,0,0],[0.25,0,0],[0.5,0,0],[0.75,0,0],[1,0,0],[0,1,0],[0.25,1,0],[0.5,1,0],[0.75,1,0],[1,1,0],[0,0.25,0],[0,0.5,0],[0,0.75,0],[1,0.25,0],[1,0.5,0],[1,0.75,0]];outlineConnect=0;fontColor=#232F3E;fillColor=#E7157B;strokeColor=#ffffff;dashed=0;verticalLabelPosition=bottom;verticalAlign=top;align=center;html=1;fontSize=12;fontStyle=0;aspect=fixed;shape=mxgraph.aws4.resourceIcon;resIcon=mxgraph.aws4.appsync;" vertex="1" parent="1">
          <mxGeometry x="1679" y="18" width="78" height="78" as="geometry" />
        </mxCell>
        <mxCell id="D9RJUFR4-NRL0ieGEcIc-28" value="SAGEMAKER" style="sketch=0;points=[[0,0,0],[0.25,0,0],[0.5,0,0],[0.75,0,0],[1,0,0],[0,1,0],[0.25,1,0],[0.5,1,0],[0.75,1,0],[1,1,0],[0,0.25,0],[0,0.5,0],[0,0.75,0],[1,0.25,0],[1,0.5,0],[1,0.75,0]];outlineConnect=0;fontColor=#232F3E;fillColor=#01A88D;strokeColor=#ffffff;dashed=0;verticalLabelPosition=bottom;verticalAlign=top;align=center;html=1;fontSize=12;fontStyle=0;aspect=fixed;shape=mxgraph.aws4.resourceIcon;resIcon=mxgraph.aws4.sagemaker;" vertex="1" parent="1">
          <mxGeometry x="1216" y="606.5" width="78" height="78" as="geometry" />
        </mxCell>
        <mxCell id="D9RJUFR4-NRL0ieGEcIc-29" value="REKOGNITION" style="outlineConnect=0;dashed=0;verticalLabelPosition=bottom;verticalAlign=top;align=center;html=1;shape=mxgraph.aws3.rekognition;fillColor=#2E73B8;gradientColor=none;" vertex="1" parent="1">
          <mxGeometry x="1372" y="599" width="76.5" height="93" as="geometry" />
        </mxCell>
        <mxCell id="D9RJUFR4-NRL0ieGEcIc-30" value="COMPREHEND" style="sketch=0;points=[[0,0,0],[0.25,0,0],[0.5,0,0],[0.75,0,0],[1,0,0],[0,1,0],[0.25,1,0],[0.5,1,0],[0.75,1,0],[1,1,0],[0,0.25,0],[0,0.5,0],[0,0.75,0],[1,0.25,0],[1,0.5,0],[1,0.75,0]];outlineConnect=0;fontColor=#232F3E;fillColor=#01A88D;strokeColor=#ffffff;dashed=0;verticalLabelPosition=bottom;verticalAlign=top;align=center;html=1;fontSize=12;fontStyle=0;aspect=fixed;shape=mxgraph.aws4.resourceIcon;resIcon=mxgraph.aws4.comprehend;" vertex="1" parent="1">
          <mxGeometry x="1516" y="606.5" width="78" height="78" as="geometry" />
        </mxCell>
        <mxCell id="D9RJUFR4-NRL0ieGEcIc-31" value="PERSONALIZE" style="sketch=0;points=[[0,0,0],[0.25,0,0],[0.5,0,0],[0.75,0,0],[1,0,0],[0,1,0],[0.25,1,0],[0.5,1,0],[0.75,1,0],[1,1,0],[0,0.25,0],[0,0.5,0],[0,0.75,0],[1,0.25,0],[1,0.5,0],[1,0.75,0]];outlineConnect=0;fontColor=#232F3E;fillColor=#01A88D;strokeColor=#ffffff;dashed=0;verticalLabelPosition=bottom;verticalAlign=top;align=center;html=1;fontSize=12;fontStyle=0;aspect=fixed;shape=mxgraph.aws4.resourceIcon;resIcon=mxgraph.aws4.personalize;" vertex="1" parent="1">
          <mxGeometry x="1662" y="606.5" width="78" height="78" as="geometry" />
        </mxCell>
        <mxCell id="D9RJUFR4-NRL0ieGEcIc-32" value="Amazon Cloudfront" style="sketch=0;outlineConnect=0;fontColor=#232F3E;gradientColor=none;strokeColor=#ffffff;fillColor=#232F3E;dashed=0;verticalLabelPosition=middle;verticalAlign=bottom;align=center;html=1;whiteSpace=wrap;fontSize=10;fontStyle=1;spacing=3;shape=mxgraph.aws4.productIcon;prIcon=mxgraph.aws4.cloudfront;" vertex="1" parent="1">
          <mxGeometry x="719" y="590.75" width="94" height="119.5" as="geometry" />
        </mxCell>
        <mxCell id="D9RJUFR4-NRL0ieGEcIc-33" style="edgeStyle=none;curved=1;rounded=0;orthogonalLoop=1;jettySize=auto;html=1;fontSize=12;startSize=8;endSize=8;dashed=1;flowAnimation=1;strokeWidth=3;" edge="1" parent="1" source="D9RJUFR4-NRL0ieGEcIc-34" target="D9RJUFR4-NRL0ieGEcIc-25">
          <mxGeometry relative="1" as="geometry" />
        </mxCell>
        <mxCell id="D9RJUFR4-NRL0ieGEcIc-34" value="" style="outlineConnect=0;dashed=0;verticalLabelPosition=bottom;verticalAlign=top;align=center;html=1;shape=mxgraph.aws3.lambda_function;fillColor=#F58534;gradientColor=none;" vertex="1" parent="1">
          <mxGeometry x="1189.25" y="177" width="69" height="72" as="geometry" />
        </mxCell>
        <mxCell id="D9RJUFR4-NRL0ieGEcIc-35" value="" style="outlineConnect=0;dashed=0;verticalLabelPosition=bottom;verticalAlign=top;align=center;html=1;shape=mxgraph.aws3.kms;fillColor=#759C3E;gradientColor=none;" vertex="1" parent="1">
          <mxGeometry x="1536" y="763" width="76.5" height="93" as="geometry" />
        </mxCell>
      </root>
    </mxGraphModel>
  </diagram>
</mxfile>
